<svg width="96" height="71" viewBox="0 0 96 71" fill="none" xmlns="http://www.w3.org/2000/svg">
<g id="Group">
<path id="Vector" fill-rule="evenodd" clip-rule="evenodd" d="M1.4157 51.3563C1.13141 51.3563 0.901407 51.1249 0.901407 50.8406C0.901407 50.7349 0.932836 50.6349 0.988552 50.5534L1.1457 50.362L11.3131 37.0203L11.4102 36.9103L11.4731 36.8374C11.5659 36.7588 11.6816 36.706 11.8102 36.706C11.9617 36.706 12.0959 36.7703 12.1902 36.8731L12.2917 36.9845L22.7133 50.4691L22.7419 50.4991C22.8248 50.5906 22.8776 50.7091 22.8776 50.8406C22.8776 51.1249 22.6462 51.3563 22.3633 51.3563H1.4157ZM22.3005 53.2578C22.5833 53.2578 22.8133 53.4878 22.8133 53.7721V70.1982C22.8133 70.481 22.5833 70.7125 22.3005 70.7125H15.366V60.3794C15.366 60.0936 15.136 59.8651 14.8517 59.8651H8.58015C8.29586 59.8651 8.06728 60.0936 8.06728 60.3794V70.7125H1.31142C1.02712 70.7125 0.797119 70.481 0.797119 70.1982V53.7721C0.797119 53.4878 1.02712 53.2578 1.31142 53.2578H22.3005ZM94.8435 48.9577C95.1264 48.9577 95.3521 49.1748 95.3521 49.4506V70.4282C95.3521 70.701 95.1264 70.9225 94.8435 70.9225H74.0687C73.7887 70.9225 73.5616 70.701 73.5616 70.4282V49.4506C73.5616 49.1748 73.7887 48.9577 74.0687 48.9577H94.8435ZM92.962 55.6807V51.9063C92.962 51.6349 92.7363 51.4135 92.4534 51.4135H86.249C85.9662 51.4135 85.7404 51.6349 85.7404 51.9063V55.6807C85.7404 55.955 85.9662 56.1764 86.249 56.1764H92.4534C92.7363 56.1764 92.962 55.955 92.962 55.6807ZM83.4761 55.6807V51.9063C83.4761 51.6349 83.2504 51.4135 82.9689 51.4135H76.7631C76.4802 51.4135 76.2531 51.6349 76.2531 51.9063V55.6807C76.2531 55.955 76.4802 56.1764 76.7631 56.1764H82.9689C83.2504 56.1764 83.4761 55.955 83.4761 55.6807ZM92.962 62.6523V58.8808C92.962 58.605 92.7363 58.385 92.4534 58.385H86.249C85.9662 58.385 85.7404 58.605 85.7404 58.8808V62.6523C85.7404 62.928 85.9662 63.148 86.249 63.148H92.4534C92.7363 63.148 92.962 62.928 92.962 62.6523ZM83.4761 62.6523V58.8808C83.4761 58.605 83.2504 58.385 82.9689 58.385H76.7631C76.4802 58.385 76.2531 58.605 76.2531 58.8808V62.6523C76.2531 62.928 76.4802 63.148 76.7631 63.148H82.9689C83.2504 63.148 83.4761 62.928 83.4761 62.6523ZM46.551 0.265137C46.8239 0.265137 47.051 0.486569 47.051 0.763718V70.2439C47.051 70.5182 46.8239 70.741 46.551 70.741H26.2205C25.9491 70.741 25.7234 70.5182 25.7234 70.2439V0.763718C25.7234 0.486569 25.9491 0.265137 26.2205 0.265137H46.551ZM34.4579 39.0003V33.8102C34.4579 33.663 34.3379 33.543 34.1907 33.543H29.5349C29.3878 33.543 29.2678 33.663 29.2678 33.8102V39.0003C29.2678 39.146 29.3878 39.266 29.5349 39.266H34.1907C34.3379 39.266 34.4579 39.146 34.4579 39.0003ZM43.5866 15.174V9.98536C43.5866 9.83678 43.4666 9.71821 43.3181 9.71821H38.6637C38.5151 9.71821 38.3965 9.83678 38.3965 9.98536V15.174C38.3965 15.3198 38.5151 15.4398 38.6637 15.4398H43.3181C43.4666 15.4398 43.5866 15.3198 43.5866 15.174ZM34.4579 62.8251V57.6379C34.4579 57.4907 34.3379 57.3722 34.1907 57.3722H29.5349C29.3878 57.3722 29.2678 57.4907 29.2678 57.6379V62.8251C29.2678 62.9723 29.3878 63.0923 29.5349 63.0923H34.1907C34.3379 63.0923 34.4579 62.9723 34.4579 62.8251ZM43.5866 39.0003V33.8102C43.5866 33.663 43.4666 33.543 43.3181 33.543H38.6637C38.5151 33.543 38.3965 33.663 38.3965 33.8102V39.0003C38.3965 39.146 38.5151 39.266 38.6637 39.266H43.3181C43.4666 39.266 43.5866 39.146 43.5866 39.0003ZM43.5866 27.0843V21.8956C43.5866 21.7485 43.4666 21.6328 43.3181 21.6328H38.6637C38.5151 21.6328 38.3965 21.7485 38.3965 21.8956V27.0843C38.3965 27.2329 38.5151 27.3515 38.6637 27.3515H43.3181C43.4666 27.3515 43.5866 27.2329 43.5866 27.0843ZM34.4579 50.9106V45.7247C34.4579 45.5747 34.3379 45.4576 34.1907 45.4576H29.5349C29.3878 45.4576 29.2678 45.5747 29.2678 45.7247V50.9106C29.2678 51.0606 29.3878 51.1777 29.5349 51.1777H34.1907C34.3379 51.1777 34.4579 51.0606 34.4579 50.9106ZM43.5866 50.9106V45.7247C43.5866 45.5747 43.4666 45.4576 43.3181 45.4576H38.6637C38.5151 45.4576 38.3965 45.5747 38.3965 45.7247V50.9106C38.3965 51.0606 38.5151 51.1777 38.6637 51.1777H43.3181C43.4666 51.1777 43.5866 51.0606 43.5866 50.9106ZM34.4579 15.174V9.98536C34.4579 9.83678 34.3379 9.71821 34.1907 9.71821H29.5349C29.3878 9.71821 29.2678 9.83678 29.2678 9.98536V15.174C29.2678 15.3198 29.3878 15.4398 29.5349 15.4398H34.1907C34.3379 15.4398 34.4579 15.3198 34.4579 15.174ZM43.5866 62.8251V57.6379C43.5866 57.4907 43.4666 57.3722 43.3181 57.3722H38.6637C38.5151 57.3722 38.3965 57.4907 38.3965 57.6379V62.8251C38.3965 62.9723 38.5151 63.0923 38.6637 63.0923H43.3181C43.4666 63.0923 43.5866 62.9723 43.5866 62.8251ZM34.4579 27.0843V21.8956C34.4579 21.7485 34.3379 21.6328 34.1907 21.6328H29.5349C29.3878 21.6328 29.2678 21.7485 29.2678 21.8956V27.0843C29.2678 27.2329 29.3878 27.3515 29.5349 27.3515H34.1907C34.3379 27.3515 34.4579 27.2329 34.4579 27.0843ZM95.3278 46.8462C95.3278 47.0791 95.1421 47.2648 94.9106 47.2648H74.0002C73.7702 47.2648 73.583 47.0791 73.583 46.8462V42.6647C73.583 42.4347 73.7702 42.2475 74.0002 42.2475H94.9106C95.1421 42.2475 95.3278 42.4347 95.3278 42.6647V46.8462ZM71.1073 13.3854C71.1358 13.4483 71.1558 13.5197 71.1558 13.594V70.3482C71.1558 70.6225 70.9344 70.8439 70.6587 70.8439H50.3482C50.0725 70.8439 49.8496 70.6225 49.8496 70.3482V39.2003C49.8539 39.0446 49.9196 38.9074 50.0225 38.8046L50.1154 38.6817L70.0958 13.3354L70.2687 13.1183C70.2801 13.1083 70.293 13.1011 70.3058 13.0926C70.3915 13.0369 70.4872 12.9969 70.5972 12.9969C70.8415 12.9969 71.0401 13.1626 71.1073 13.3854ZM68.7958 55.6421V51.8492C68.7958 51.572 68.5715 51.352 68.2986 51.352H62.2413C61.9642 51.352 61.7413 51.572 61.7413 51.8492V55.6421C61.7413 55.9178 61.9642 56.1393 62.2413 56.1393H68.2986C68.5715 56.1393 68.7958 55.9178 68.7958 55.6421ZM68.7958 48.6334V44.839C68.7958 44.5633 68.5715 44.3419 68.2986 44.3419H62.2413C61.9642 44.3419 61.7413 44.5633 61.7413 44.839V48.6334C61.7413 48.9062 61.9642 49.1291 62.2413 49.1291H68.2986C68.5715 49.1291 68.7958 48.9062 68.7958 48.6334ZM59.5499 41.6318V33.0516C59.4956 32.7902 59.2741 32.5873 58.9956 32.5873C58.8156 32.5873 58.6556 32.6702 58.5484 32.7987L58.4013 32.9759C56.9341 34.7759 53.4383 39.0803 52.664 40.1889C52.6454 40.216 52.6226 40.2475 52.6083 40.2703C52.5926 40.2903 52.5754 40.3132 52.564 40.3361C52.5454 40.3646 52.5426 40.3732 52.534 40.3946C52.5097 40.4518 52.4983 40.5146 52.4954 40.5803V41.6318C52.4954 41.9061 52.7183 42.129 52.9954 42.129H59.0527C59.3256 42.129 59.5499 41.9061 59.5499 41.6318ZM68.7958 34.6145V30.823C68.7958 30.5444 68.5715 30.323 68.2986 30.323H62.2413C61.9642 30.323 61.7413 30.5444 61.7413 30.823V34.6145C61.7413 34.8902 61.9642 35.1116 62.2413 35.1116H68.2986C68.5715 35.1116 68.7958 34.8902 68.7958 34.6145ZM59.5327 62.6494V58.8565C59.5327 58.5822 59.3113 58.3608 59.037 58.3608H52.9769C52.7011 58.3608 52.4797 58.5822 52.4797 58.8565V62.6494C52.4797 62.9251 52.7011 63.1466 52.9769 63.1466H59.037C59.3113 63.1466 59.5327 62.9251 59.5327 62.6494ZM59.5327 48.6334V44.839C59.5327 44.5633 59.3113 44.3419 59.037 44.3419H52.9769C52.7011 44.3419 52.4797 44.5633 52.4797 44.839V48.6334C52.4797 48.9062 52.7011 49.1291 52.9769 49.1291H59.037C59.3113 49.1291 59.5327 48.9062 59.5327 48.6334ZM62.6942 27.1515C62.6242 27.2472 62.5828 27.3658 62.5828 27.4943C62.5828 27.8029 62.8285 28.0515 63.1342 28.0658C63.1442 28.0658 63.1514 28.0701 63.1599 28.0701C63.1685 28.0701 63.1757 28.0658 63.1856 28.0658H68.1786C68.1872 28.0658 68.1943 28.0701 68.2029 28.0701C68.2115 28.0701 68.2201 28.0658 68.2286 28.0658C68.5343 28.0515 68.7801 27.8029 68.7801 27.4943V21.0813C68.7258 20.817 68.5043 20.617 68.2258 20.617C68.0458 20.617 67.8858 20.6999 67.7786 20.827L67.6329 21.0042C66.5086 22.3814 64.2057 25.2171 62.8371 26.9715L62.6942 27.1515ZM59.5327 55.6421V51.8492C59.5327 51.572 59.3113 51.352 59.037 51.352H52.9769C52.7011 51.352 52.4797 51.572 52.4797 51.8492V55.6421C52.4797 55.9178 52.7011 56.1393 52.9769 56.1393H59.037C59.3113 56.1393 59.5327 55.9178 59.5327 55.6421ZM68.7958 41.6247V37.8317C68.7958 37.556 68.5715 37.3346 68.2986 37.3346H62.2413C61.9642 37.3346 61.7413 37.556 61.7413 37.8317V41.6247C61.7413 41.8975 61.9642 42.1204 62.2413 42.1204H68.2986C68.5715 42.1204 68.7958 41.8975 68.7958 41.6247ZM68.7958 62.6494V58.8565C68.7958 58.5822 68.5715 58.3608 68.2986 58.3608H62.2413C61.9642 58.3608 61.7413 58.5822 61.7413 58.8565V62.6494C61.7413 62.9251 61.9642 63.1466 62.2413 63.1466H68.2986C68.5715 63.1466 68.7958 62.9251 68.7958 62.6494Z" fill="#F1F3F4"/>
</g>
</svg>
