<svg width="104" height="53" viewBox="0 0 104 53" fill="none" xmlns="http://www.w3.org/2000/svg">
<g id="Group">
<path id="Vector" fill-rule="evenodd" clip-rule="evenodd" d="M102.808 25.9578C102.968 26.1778 103.1 26.3693 103.205 26.5307C103.1 26.6964 102.967 26.885 102.807 27.1079C99.1311 32.2466 82.5064 52.7727 51.6557 52.7299C20.8008 52.6885 4.23752 32.118 0.570295 26.9693C0.414578 26.745 0.280291 26.5564 0.170288 26.3893C0.280291 26.2278 0.414577 26.0378 0.571723 25.8178C4.25323 20.6777 20.8722 0.152969 51.7286 0.194399C82.5779 0.237257 99.1468 20.8063 102.808 25.9578ZM51.6986 48.0741C56.5987 48.0812 61.1131 46.444 64.7317 43.6911C64.236 43.504 64.2474 43.2568 62.7731 43.1982C60.6102 43.1139 59.1345 45.0283 58.403 45.4469C57.6744 45.8654 53.0972 43.2568 49.6114 43.5925C48.0485 43.7411 46.067 44.4168 45.3999 46.1497C45.227 46.5997 45.3827 46.9755 45.6584 47.2012C47.5742 47.7626 49.5985 48.0712 51.6986 48.0741ZM66.8646 41.8382C69.0075 39.7124 70.7019 37.1352 71.8019 34.2637C71.7947 33.7066 71.6219 33.1423 71.4719 32.8637C71.3947 32.7066 71.309 32.5408 71.2205 32.3666C70.7533 31.4337 70.2061 32.9637 67.6232 33.6052C66.7475 33.8209 65.5875 33.9566 63.7203 34.6295C62.3617 35.1223 60.7316 37.3038 61.4888 39.2196C62.2388 41.1339 61.7717 42.4368 63.4989 41.3096C65.2332 40.1796 64.0003 41.5168 64.5803 41.7325C65.156 41.9439 65.0175 40.9896 66.1903 41.5882C66.4289 41.7082 66.6489 41.7782 66.8646 41.8382ZM48.7942 34.0609C50.2143 31.7823 48.3771 31.7023 47.5271 33.2594C47.3685 33.5452 46.5985 37.3138 47.1442 37.7367C47.6856 38.1581 48.4985 34.5452 48.7942 34.0609ZM67.0632 29.8565C67.3004 29.9494 68.1675 29.9922 68.1675 29.6408C68.1675 29.2893 67.5975 28.6308 67.1561 28.4065C66.7232 28.1936 66.2789 28.4936 66.4532 29.0222C66.6275 29.5494 66.8318 29.7694 67.0632 29.8565ZM57.5773 29.8065C58.0002 29.4236 56.9144 28.4122 56.1915 28.4765C55.8687 28.5022 54.9844 29.1979 55.5244 29.6194C56.0673 30.0436 57.153 30.1837 57.5773 29.8065ZM44.9084 39.0567C45.3327 37.421 45.8156 38.3867 46.0256 37.271C46.237 36.1552 46.587 36.0795 46.5185 34.7366C46.4485 33.3994 46.6356 33.088 47.6128 32.1194C48.5885 31.158 48.3099 31.6651 48.5942 30.768C48.8771 29.8751 47.9028 29.6236 47.0342 29.0722C46.0142 28.4222 44.9656 26.6836 45.067 25.5021C45.1384 24.6835 45.5756 25.4293 46.5756 26.4707C47.5742 27.5164 48.0228 28.3336 49.04 28.0907C50.0614 27.8465 51.4586 26.9321 51.0943 25.8936C50.85 25.1935 47.4142 22.462 47.5699 21.9435C47.7471 21.352 48.3314 21.7977 49.3785 22.6149C50.4214 23.4378 51.6714 23.3006 51.9272 24.7521C52.4015 27.4264 55.4515 26.245 57.5459 28.6522C58.3516 29.5765 58.7473 28.5793 59.2959 27.4622C59.8473 26.3436 58.8702 25.8193 59.6359 25.2964C60.4045 24.7721 61.3102 25.0021 61.6588 25.895C62.0045 26.7907 62.4917 27.9536 62.9374 29.1422C63.3603 30.2708 65.926 32.028 66.2661 32.0537C67.7189 32.148 65.7632 29.9051 65.6117 29.0836C65.4603 28.2636 66.0775 26.7293 66.7104 26.5064C67.3461 26.2821 67.5975 26.4979 68.9704 25.6064C70.3461 24.7135 68.929 24.5592 68.9004 23.0692C68.8718 21.5806 69.7918 22.452 70.009 22.7663C70.8604 24.0149 72.3305 23.3506 72.5262 22.5763C72.5733 22.3863 72.6476 22.0492 72.6319 21.582C70.3804 12.1332 61.896 5.09737 51.7572 5.08451C47.4942 5.07879 43.5241 6.31882 40.1783 8.45601C42.6712 8.27172 47.6714 7.4317 47.1342 9.62175C46.6599 11.5589 50.3 11.8789 48.4499 12.829C47.6642 13.2376 45.3684 14.8319 44.8613 14.5519C43.437 13.7804 47.7756 12.799 46.9413 12.2361C46.1042 11.6647 44.4384 12.3161 43.1355 12.6004C42.4941 12.7447 39.9883 12.7347 39.0726 13.1704C38.1569 13.6133 37.0768 14.199 37.3783 14.9819C37.684 15.7662 40.164 16.3891 40.5812 16.3891C40.9983 16.3905 41.4512 16.2891 42.3412 15.199C43.2298 14.1033 44.307 15.1105 43.9941 15.2562C43.6841 15.4062 42.9841 15.9019 42.4341 16.5533C41.9955 17.0676 41.1783 17.4319 40.2898 16.9834C39.3997 16.5362 37.4111 16.7748 37.0254 16.9962C36.6425 17.2205 35.6839 17.8891 35.3939 17.9648C35.1068 18.0419 34.6882 18.2591 34.8282 18.5591C34.9668 18.8548 35.0439 19.212 34.8225 19.432C34.6053 19.6577 34.2053 20.1234 33.651 19.752C33.1439 19.4134 31.6696 19.5606 31.2581 20.0134C31.2024 20.1863 31.151 20.362 31.0996 20.5363C31.071 21.2977 31.401 22.5492 32.661 21.6106C33.0739 21.3006 35.1325 21.3763 36.4025 20.1749C37.0025 19.6091 37.6711 20.352 37.8154 20.6491C37.9626 20.9492 38.8254 22.7978 39.2569 22.7249C39.6869 22.6535 38.5569 20.9492 39.0626 20.8749C39.5683 20.7992 40.2126 22.312 40.5169 22.0992C41.3384 21.5192 42.0169 21.7249 42.1084 22.5863C42.1855 23.2735 41.5398 23.7235 40.7141 24.0635C39.5726 24.5264 37.6111 23.4678 36.3668 22.9978C34.8539 22.4263 32.8467 22.1149 32.8467 22.1149L31.5881 22.5478C31.5881 22.5478 31.6139 22.8635 30.4753 24.2064C30.4253 24.2649 30.3824 24.3349 30.3424 24.4064C30.2738 25.1121 30.2338 25.825 30.2324 26.5507C30.2281 29.5179 30.8253 32.3451 31.9096 34.918C31.9396 34.9295 31.9539 34.938 31.9853 34.948C33.1696 35.3223 32.8267 35.1266 33.661 34.758C34.4996 34.3823 35.2496 33.568 35.8468 34.3123C36.4497 35.0566 37.0225 34.8195 37.104 36.0095C37.1825 37.2024 38.3326 35.2295 38.5483 37.0181C38.8869 39.811 39.5455 38.4367 39.544 38.901C39.5426 40.2425 39.6755 42.8511 40.6526 42.9254C41.6284 42.9982 43.1684 42.3325 43.5841 41.8082C44.0013 41.291 44.4899 40.6996 44.9084 39.0567ZM67.9761 30.5179C67.6518 30.5437 66.7689 31.2394 67.3089 31.6608C67.8518 32.0866 68.9347 32.228 69.3576 31.8465C69.7833 31.4637 68.699 30.4608 67.9761 30.5179ZM72.7662 30.9965C73.0605 29.5794 73.2205 28.1136 73.2219 26.6093C73.2234 26.1907 73.2076 25.775 73.1862 25.3635C72.9148 24.4292 72.359 23.7807 71.3162 23.8607C71.0533 23.8821 72.0105 24.945 71.6919 25.305C69.7819 27.4979 72.1905 30.838 72.7662 30.9965ZM33.3953 15.3547C32.7739 16.3648 32.2381 17.4362 31.7896 18.5491C31.9396 18.6234 32.1224 18.6577 32.3439 18.6077C33.0239 18.4591 34.1882 17.0676 34.9311 16.3848C35.1939 16.1419 36.6268 15.4962 36.5354 15.1419C36.4497 14.7862 35.7368 14.5162 35.2025 14.6062C34.6682 14.689 33.8953 14.7833 33.5068 15.2247C33.4882 15.249 33.4439 15.2962 33.3953 15.3547ZM34.4996 13.1647C34.4039 13.3118 34.6011 13.7004 35.1025 13.779C35.7511 13.8833 36.9311 13.2218 37.384 12.7533C37.5454 12.589 37.7297 11.6347 37.674 11.3875C37.6211 11.1418 37.1854 10.9561 36.8583 11.0204C36.5268 11.0775 36.0539 11.1404 35.8168 11.4461C35.7039 11.5918 34.7782 12.7561 34.4996 13.1647Z" fill="#F1F3F4"/>
</g>
</svg>
