<svg width="88" height="45" viewBox="0 0 88 45" fill="none" xmlns="http://www.w3.org/2000/svg">
<g id="Group">
<path id="Vector" d="M80.418 4.73362C74.2678 -0.123638 66.1191 -0.22364 63.1347 0.486376L62.789 0.566378C59.3418 1.38068 53.8674 2.72786 47.4601 10.6795C47.4244 10.7223 47.3872 10.768 47.3529 10.8138L47.2729 10.9123C47.2101 11.0009 47.1658 11.1052 47.1658 11.2223C47.1658 11.3181 47.1887 11.4066 47.2358 11.4881L47.3844 11.7323C48.1887 13.0781 49.203 14.8096 50.0601 16.4053C50.0673 16.4225 50.0759 16.4353 50.083 16.4553C50.1744 16.631 50.3573 16.7553 50.5716 16.7553C50.7202 16.7553 50.8544 16.6967 50.9502 16.601C50.9902 16.5496 51.0316 16.4939 51.0673 16.4382C56.7546 8.5737 61.2275 7.48654 64.2519 6.77509L64.6148 6.6908C66.1848 6.31365 72.1549 6.33651 76.465 9.73802C79.828 12.3938 81.5351 16.6196 81.5351 22.2954C81.5351 31.8185 76.9036 35.5443 73.0164 36.9915C66.9962 39.243 61.2218 36.2343 61.179 36.2115L60.9204 36.0858C57.6132 34.6486 52.6773 31.6614 48.0258 22.3183C38.6499 3.4893 30.8083 1.71498 25.6182 0.540664L25.341 0.477804C22.9781 -0.0579224 14.7722 -0.436502 8.32207 4.71219C4.952 7.40082 0.937622 12.6281 0.937622 22.2583C0.937622 28.1256 2.14336 32 5.24057 36.0758C5.92059 37.0044 12.8636 45.9246 26.2882 43.3516C28.4368 42.9402 31.3469 41.9145 34.5484 39.5158L37.5027 42.1802C37.6956 42.3559 38.0027 42.3416 38.1799 42.1473C38.2656 42.0573 38.2999 41.9416 38.2985 41.8273V41.7873L40.4299 28.6756L40.4314 28.5299C40.4299 28.4027 40.3785 28.2727 40.2728 28.1813C40.1828 28.0956 40.0714 28.0627 39.9599 28.0627L39.8685 28.0713L39.7299 28.0856L27.1725 31.6014L26.9439 31.6385C26.8525 31.6585 26.7682 31.7057 26.7039 31.7785C26.5211 31.9785 26.5382 32.2828 26.7396 32.46L26.8868 32.5971L29.7011 35.1372C27.8839 36.3143 26.2996 36.8543 25.091 37.0886C15.3794 38.9401 10.5836 32.58 10.4021 32.33L10.3335 32.2371C8.07778 29.2742 7.3149 26.757 7.3149 22.2583C7.3149 16.5639 8.99209 12.3366 12.2993 9.69516C16.4994 6.34365 22.2924 6.32365 23.9281 6.69652L24.211 6.76081C28.4639 7.72226 34.2898 9.04086 42.3143 25.1612C46.4829 33.53 51.7045 39.003 58.2746 41.8887C59.1104 42.3145 63.1004 44.2074 68.2763 44.2074C70.442 44.2074 72.8135 43.8759 75.2464 42.9716C79.0537 41.5502 87.9124 36.6943 87.9124 22.2954C87.9124 12.6724 83.8366 7.43368 80.418 4.73362Z" fill="#F1F3F4"/>
</g>
</svg>
