<svg width="68" height="63" viewBox="0 0 68 63" fill="none" xmlns="http://www.w3.org/2000/svg">
<g id="Group">
<path id="Vector" fill-rule="evenodd" clip-rule="evenodd" d="M61.7818 45.0746C62.3203 45.0746 62.7589 45.5117 62.7589 46.0489V57.182C62.7589 57.7206 62.3203 58.1592 61.7818 58.1592H50.5601C50.0215 58.1592 49.5858 57.7206 49.5858 57.182V53.7876L42.2599 52.9805L5.32905 53.8005V49.4347L25.6281 49.8718V43.6146C23.3309 43.4317 21.0851 42.9788 18.9579 42.2459C15.3007 40.9873 11.2149 37.3687 7.76625 36.293C9.64487 36.7201 14.2793 37.4387 17.575 35.1658C21.7937 32.2514 22.4737 31.8871 25.0981 31.4628C19.4365 30.9814 15.2993 27.4928 13.6578 19.7826C12.0921 12.4353 11.0092 9.54519 7.91626 8.22659C12.4378 7.78801 19.0322 7.74372 26.5924 15.4839C32.3225 21.3455 38.1898 21.1969 42.8556 16.8568C47.5186 12.5153 50.7887 10.4238 53.3287 13.271C53.9416 13.9582 54.5387 14.5482 55.093 15.0467C55.6745 12.2253 57.3917 10.4466 59.0917 8.7066C60.026 7.75087 60.9946 6.7637 61.7332 5.6151L62.3418 6.00797C61.5603 7.21657 60.5703 8.23088 59.6117 9.21233C57.866 10.9967 56.1745 12.7424 55.7116 15.5839C57.0716 16.7225 58.036 17.2397 58.036 17.2397C58.036 17.2397 57.0188 17.1454 55.593 17.3139C55.6088 18.7783 55.9059 20.4969 56.6031 22.5855C56.3602 22.6126 56.1173 22.6326 55.8716 22.6469C55.213 20.604 54.9145 18.8911 54.883 17.4168C54.1673 17.5382 53.3858 17.7254 52.5958 18.0225C49.8358 19.0597 47.9157 21.3897 48.14 27.3913C48.3643 33.2843 46.1171 39.7002 35.8155 42.6074C34.4026 43.006 32.9797 43.2888 31.5582 43.4717V50.0076L42.2599 50.2533L49.5858 49.4475V46.0489C49.5858 45.5117 50.0215 45.0746 50.5601 45.0746H61.7818ZM27.3924 43.706V49.9118L29.7939 49.9676V43.6403C28.991 43.6946 28.191 43.7188 27.3924 43.706ZM58.006 0.737847C58.006 0.737847 60.0017 1.77787 60.396 3.52791C60.7903 5.27795 59.4374 7.07371 59.4374 7.07371C59.4374 7.07371 57.4431 6.03226 57.0474 4.28221C56.6545 2.5336 58.006 0.737847 58.006 0.737847ZM55.803 10.9924C55.803 10.9924 53.8073 9.95092 53.4116 8.20088C53.0187 6.45084 54.3716 4.65794 54.3716 4.65794C54.3716 4.65794 56.3659 5.6951 56.7616 7.44515C57.1559 9.19519 55.803 10.9924 55.803 10.9924ZM61.3603 9.06947C61.3603 9.06947 62.5661 7.39657 64.1918 7.25085C65.819 7.10657 67.2447 8.5466 67.2447 8.5466C67.2447 8.5466 66.0404 10.2209 64.4147 10.3652C62.7875 10.5095 61.3603 9.06947 61.3603 9.06947ZM63.6989 1.37786C65.0233 0.037831 67.3562 0.240693 67.3562 0.240693C67.3562 0.240693 67.5433 2.61646 66.2204 3.95649C64.8947 5.29795 62.5632 5.09509 62.5632 5.09509C62.5632 5.09509 62.3761 2.72075 63.6989 1.37786ZM60.7803 14.4067C59.1603 14.2153 58.0574 12.5153 58.0574 12.5153C58.0574 12.5153 59.5803 11.1238 61.2017 11.3152C62.8203 11.5067 63.9232 13.2081 63.9232 13.2081C63.9232 13.2081 62.4003 14.5982 60.7803 14.4067ZM62.2275 40.453C63.1732 40.453 63.9404 41.2174 63.9404 42.1645C63.9404 43.1117 63.1732 43.8788 62.2275 43.8788H50.1172C49.17 43.8788 48.4015 43.1117 48.4015 42.1645C48.4015 41.2174 49.17 40.453 50.1172 40.453H62.2275ZM62.2275 59.3363C63.1732 59.3363 63.9404 60.1021 63.9404 61.0492C63.9404 61.9935 63.1732 62.7621 62.2275 62.7621H50.1172C49.17 62.7621 48.4015 61.9935 48.4015 61.0492C48.4015 60.1021 49.17 59.3363 50.1172 59.3363H62.2275ZM7.76625 36.293C7.23624 36.173 6.92338 36.0772 6.92338 36.0772C7.19767 36.1272 7.48196 36.2044 7.76625 36.293ZM4.28046 53.0791C4.28046 53.9991 3.63759 54.7462 2.84614 54.7462H1.98469C1.19325 54.7462 0.54895 53.9991 0.54895 53.0791V50.0618C0.54895 49.139 1.19325 48.3947 1.98469 48.3947H2.84614C3.63759 48.3947 4.28046 49.139 4.28046 50.0618V53.0791Z" fill="#F1F3F4"/>
</g>
</svg>
