<svg width="74" height="73" viewBox="0 0 74 73" fill="none" xmlns="http://www.w3.org/2000/svg">
<g id="Group">
<path id="Vector" fill-rule="evenodd" clip-rule="evenodd" d="M49.728 40.3366C49.8851 40.3366 50.008 40.4766 50.008 40.6466V48.3197C50.008 48.4925 49.8851 48.6311 49.728 48.6311H24.1974C24.0445 48.6311 23.9202 48.4925 23.9202 48.3197V40.6466C23.9202 40.4766 24.0445 40.3366 24.1974 40.3366H49.728ZM49.728 24.0106C49.8851 24.0106 50.008 24.1506 50.008 24.3206V31.9936C50.008 32.1665 49.8851 32.305 49.728 32.305H24.1974C24.0445 32.305 23.9202 32.1665 23.9202 31.9936V24.3206C23.9202 24.1506 24.0445 24.0106 24.1974 24.0106H49.728ZM49.3694 12.4131C49.5023 12.546 49.408 12.7746 49.2194 12.7746H24.7103C24.5217 12.7746 24.4274 12.546 24.5617 12.4131L36.8148 0.15858C36.8977 0.0757208 37.032 0.0757208 37.1148 0.15858L49.3694 12.4131ZM60.8725 48.7254C60.7396 48.8583 60.5111 48.764 60.5111 48.5754V24.0663C60.5111 23.8777 60.7396 23.7834 60.8725 23.9177L73.1271 36.1708C73.2099 36.2537 73.2099 36.388 73.1271 36.4708L60.8725 48.7254ZM24.5603 60.23C24.4274 60.0971 24.5217 59.8685 24.7103 59.8685H49.2194C49.408 59.8685 49.5023 60.0971 49.368 60.23L37.1134 72.4845C37.032 72.5674 36.8977 72.5674 36.8148 72.4845L24.5603 60.23ZM13.0557 23.9163C13.1886 23.7834 13.4172 23.8777 13.4172 24.0663V48.5754C13.4172 48.764 13.1886 48.8583 13.0557 48.724L0.801158 36.4694C0.718299 36.388 0.718299 36.2537 0.801158 36.1708L13.0557 23.9163Z" fill="#F1F3F4"/>
</g>
</svg>
