<svg width="108" height="47" viewBox="0 0 108 47" fill="none" xmlns="http://www.w3.org/2000/svg">
<g id="Group">
<path id="Vector" fill-rule="evenodd" clip-rule="evenodd" d="M5.7325 27.0316C5.75822 27.1402 5.76251 27.2559 5.73965 27.3716L2.31672 45.5192C2.23243 45.9649 1.80385 46.2578 1.35955 46.1735C0.91383 46.0892 0.620966 45.6606 0.705253 45.2163L4.12818 27.0687C4.1439 26.9887 4.16961 26.913 4.20533 26.8445C3.85389 26.5702 3.6296 26.1444 3.6296 25.6673V14.9799C3.6296 12.297 5.6825 10.0969 8.29684 9.85978C8.38828 9.84835 8.47971 9.83692 8.59114 9.83692H17.017C17.1199 9.83692 17.2128 9.84835 17.2999 9.85978C19.92 10.0969 21.9714 12.297 21.9714 14.9799V25.313C22.1729 25.0401 22.4972 24.863 22.8615 24.863C23.2572 24.863 23.6 25.0716 23.8001 25.383L23.8086 25.3773C23.9001 25.453 25.3115 27.9788 25.7858 28.4459C26.2787 28.9459 26.7258 28.8902 26.7258 28.8902H30.4073C30.4073 28.8902 30.8502 28.9459 31.3459 28.4459C31.8131 27.9788 33.2317 25.453 33.3203 25.3773L33.3331 25.383C33.5274 25.0716 33.8703 24.863 34.2703 24.863C34.6189 24.863 34.9289 25.023 35.1317 25.273C35.1474 24.9387 35.2217 24.6916 35.2217 24.6916L38.2547 14.8113C38.2547 14.8113 39.3433 11.9555 41.7433 11.9555H49.4792C51.8821 11.9555 52.9636 14.8113 52.9636 14.8113L55.9993 24.6916C55.9993 24.6916 56.5422 26.5016 55.0036 26.9545C53.4764 27.4073 53.0107 25.6387 53.0107 25.6387L50.5649 17.3928C50.5649 17.3928 50.4307 16.7585 49.9549 16.8957C49.4792 17.0328 49.6606 17.7114 49.6606 17.7114L53.915 33.1646H49.9549V44.232C49.9549 45.2792 49.1063 46.1306 48.052 46.1306C46.9963 46.1306 46.1506 45.2792 46.1506 44.232V33.1646H45.0691V44.232C45.0691 45.2792 44.2205 46.1306 43.1691 46.1306C42.1205 46.1306 41.2647 45.2792 41.2647 44.232V33.1646H37.3046L41.5619 17.7114C41.5619 17.7114 41.7433 17.0328 41.2647 16.8957C40.789 16.7585 40.6561 17.3928 40.6561 17.3928L38.2075 25.6387C38.2075 25.6387 37.7447 27.4073 36.216 26.9545C35.7375 26.8145 35.4617 26.5416 35.306 26.2344C35.206 26.5116 35.0317 26.8802 35.0317 26.8802L32.2002 31.9989C32.2002 31.9989 32.0145 32.3803 32.0145 32.7289V33.786L33.636 39.7548H32.0145V44.6334C32.0145 45.4649 31.3417 46.132 30.5145 46.132C29.6873 46.132 29.0159 45.4649 29.0159 44.6334V39.9362C29.0159 39.9362 29.0259 39.8576 29.0173 39.7548H28.1116C28.1016 39.8576 28.1116 39.9362 28.1116 39.9362V44.6334C28.1116 45.4649 27.4444 46.132 26.6187 46.132C25.7901 46.132 25.1201 45.4649 25.1201 44.6334H25.1144V39.7548H23.5L25.1144 33.8189V32.7289C25.1144 32.3803 24.9272 31.9989 24.9272 31.9989L21.8629 26.4545C21.8629 26.4545 21.8443 26.3973 21.8214 26.3187C21.5786 26.8159 21.0686 27.1616 20.4771 27.1616C19.6514 27.1616 18.9814 26.4902 18.9814 25.6673V16.4885C18.9814 16.1442 18.8871 15.6785 18.2542 15.6785C17.8228 15.6785 17.7242 16.1399 17.7128 16.4328V43.9449C17.7128 45.1277 16.7542 46.092 15.5642 46.092C14.377 46.092 13.4184 45.1277 13.4184 43.9449V28.0902C13.4141 27.9159 13.347 27.4616 12.7998 27.4616C12.2526 27.4616 12.1941 27.9159 12.1855 28.0902V43.9449C12.1855 45.1277 11.2255 46.092 10.0383 46.092C8.84829 46.092 7.89255 45.1277 7.89255 43.9449V16.4328C7.87398 16.1399 7.78398 15.6785 7.34968 15.6785C6.71967 15.6785 6.61967 16.1442 6.61967 16.4885V25.6673C6.61967 26.2744 6.25537 26.7987 5.7325 27.0316ZM94.0531 4.5168C94.0531 2.38533 95.7817 0.659573 97.9117 0.659573C100.037 0.659573 101.76 2.38533 101.76 4.5168C101.76 6.64685 100.037 8.37261 97.9117 8.37261C95.7817 8.37261 94.0531 6.64685 94.0531 4.5168ZM102.412 9.85978C105.028 10.0969 107.078 12.297 107.078 14.9799V25.6673C107.078 26.4902 106.409 27.1616 105.585 27.1616C104.756 27.1616 104.089 26.4902 104.089 25.6673V16.4885C104.089 16.1442 103.989 15.6785 103.36 15.6785C102.925 15.6785 102.835 16.1399 102.818 16.4328V43.9449C102.818 45.1277 101.86 46.092 100.672 46.092C99.4832 46.092 98.5203 45.1277 98.5203 43.9449V28.0902C98.5146 27.9159 98.456 27.4616 97.9117 27.4616H97.9089C97.3617 27.4616 97.2946 27.9159 97.2888 28.0902V43.9449C97.2888 45.1277 96.3317 46.092 95.1431 46.092C93.9531 46.092 92.9959 45.1277 92.9959 43.9449V16.4328C92.9816 16.1399 92.8873 15.6785 92.4559 15.6785C91.823 15.6785 91.7273 16.1442 91.7273 16.4885V25.6673C91.7273 26.4902 91.0573 27.1616 90.2315 27.1616C89.4044 27.1616 88.7386 26.4902 88.7386 25.6673V14.9799C88.7386 12.297 90.7901 10.0969 93.4102 9.85978C93.4959 9.84835 93.5902 9.83692 93.6931 9.83692H102.119C102.229 9.83692 102.319 9.84835 102.412 9.85978ZM71.1268 6.54114C71.1268 8.55832 69.4968 10.1926 67.4796 10.1926C65.461 10.1926 63.8267 8.55832 63.8267 6.54114C63.8267 4.52537 65.461 2.88677 67.4796 2.88677C69.4968 2.88677 71.1268 4.52537 71.1268 6.54114ZM60.1223 14.8113C60.1223 14.8113 61.2095 11.9555 63.6095 11.9555H71.3468C73.7483 11.9555 74.8326 14.8113 74.8326 14.8113L77.867 24.6916C77.867 24.6916 78.4113 26.5016 76.8712 26.9545C75.3441 27.4073 74.8798 25.6387 74.8798 25.6387L72.4326 17.3928C72.4326 17.3928 72.2997 16.7585 71.8226 16.8957C71.3468 17.0328 71.5254 17.7114 71.5254 17.7114L75.7812 33.1646H71.8226V44.232C71.8226 45.2792 70.9711 46.1306 69.9168 46.1306C68.8639 46.1306 68.0168 45.2792 68.0168 44.232V33.1646H66.9353V44.232C66.9353 45.2792 66.0867 46.1306 65.0367 46.1306C63.9852 46.1306 63.1324 45.2792 63.1324 44.232V33.1646H59.1723L63.4309 17.7114C63.4309 17.7114 63.6095 17.0328 63.1324 16.8957C62.6566 16.7585 62.5238 17.3928 62.5238 17.3928L60.0766 25.6387C60.0766 25.6387 59.6123 27.4073 58.0837 26.9545C56.5465 26.5016 57.0879 24.6916 57.0879 24.6916L60.1223 14.8113ZM49.2606 6.54114C49.2606 8.55832 47.6277 10.1926 45.612 10.1926C43.5934 10.1926 41.9605 8.55832 41.9605 6.54114C41.9605 4.52537 43.5934 2.88677 45.612 2.88677C47.6277 2.88677 49.2606 4.52537 49.2606 6.54114ZM83.3871 26.9745C81.7056 26.9745 80.3485 25.6144 80.3485 23.933C80.3485 22.2529 81.7056 20.8958 83.3871 20.8958C85.0686 20.8958 86.4243 22.2529 86.4243 23.933C86.4243 25.6144 85.0686 26.9745 83.3871 26.9745ZM76.1012 36.4147L76.0898 36.4118C76.1012 36.2861 76.9441 34.1932 77.1941 33.5446C78.9413 29.0517 79.4413 28.2388 81.0242 28.1902C82.6099 28.1431 83.3785 28.1731 83.3785 28.1731C83.3785 28.1731 84.0957 28.1459 85.2971 28.1731C86.4986 28.2073 87.7458 28.1902 88.4315 30.1903C88.6544 30.8431 90.553 35.4989 90.5901 35.6147L90.5787 35.6261C90.8016 35.9375 90.863 36.3504 90.703 36.7347C90.4558 37.3247 89.7801 37.6033 89.1958 37.3576C89.0229 37.2876 88.4615 35.6747 88.4615 35.6747L87.1658 32.0674C87.1658 32.0674 86.9743 31.8074 86.9743 32.1717V44.5734C86.9743 45.4363 86.2715 46.132 85.4114 46.132C84.5486 46.132 83.85 45.4363 83.85 44.5734V39.679C83.85 39.679 83.9357 38.9876 83.3785 38.9876C82.8199 38.9876 82.9099 39.679 82.9099 39.679V44.5734C82.9099 45.4363 82.2142 46.132 81.3513 46.132C80.487 46.132 79.7927 45.4363 79.7927 44.5734H79.7856V32.1717C79.7856 31.8074 79.4984 32.1603 79.4984 32.1603L77.847 37.4276C77.847 37.4276 77.3813 38.2361 76.5441 37.8519C75.8312 37.5233 75.9527 36.7704 76.1012 36.4147ZM16.6556 4.5168C16.6556 6.64685 14.9256 8.37261 12.7969 8.37261C10.6698 8.37261 8.94686 6.64685 8.94686 4.5168C8.94686 2.38533 10.6698 0.659573 12.7969 0.659573C14.9256 0.659573 16.6556 2.38533 16.6556 4.5168ZM28.5644 26.9745C26.8844 26.9745 25.5272 25.6144 25.5272 23.933C25.5272 22.2529 26.8844 20.8958 28.5644 20.8958C30.2459 20.8958 31.6017 22.2529 31.6017 23.933C31.6017 25.6144 30.2459 26.9745 28.5644 26.9745Z" fill="#F1F3F4"/>
</g>
</svg>
