<svg width="76" height="65" viewBox="0 0 76 65" fill="none" xmlns="http://www.w3.org/2000/svg">
<g id="Group">
<path id="Vector" fill-rule="evenodd" clip-rule="evenodd" d="M75.4829 46.565C75.5314 46.6236 75.57 46.6793 75.6043 46.7279C75.6243 46.7765 75.6414 46.8393 75.6414 46.9007C75.6414 46.9665 75.6243 47.0193 75.6043 47.075C75.57 47.1165 75.5314 47.1722 75.4829 47.2365C73.73 49.5994 62.4083 64.034 46.5365 64.034C32.7533 64.034 18.0087 51.5308 18.0087 51.5308C18.0087 51.5308 12.45 62.9025 1.08405 63.9611C1.04405 63.9726 1.00262 63.9726 0.965476 63.9726L0.842613 63.9826C0.60975 63.9611 0.424033 63.7754 0.424033 63.5368C0.424033 63.4426 0.452604 63.3697 0.495462 63.2968L0.592608 63.144C2.03978 60.7311 5.78844 53.8138 5.78844 46.9007C5.78844 40.0092 2.06264 33.1119 0.60118 30.6875C0.60118 30.6875 0.456891 30.4704 0.424033 30.2718C0.398318 30.0675 0.619754 29.8375 0.856902 29.8246H0.926903C1.00262 29.8246 1.07262 29.8389 1.13976 29.8389C12.47 30.9275 18.0087 42.2649 18.0087 42.2649C18.0087 42.2649 32.7533 29.7632 46.5365 29.7632C62.4083 29.7632 73.73 44.1978 75.4829 46.565ZM55.3624 48.7251C57.9268 48.7251 59.9997 46.6479 59.9997 44.0893C59.9997 41.5321 57.9268 39.4606 55.3624 39.4606C52.8038 39.4606 50.7295 41.5321 50.7295 44.0893C50.7295 46.6479 52.8038 48.7251 55.3624 48.7251ZM16.9687 16.8258C15.2901 18.4758 8.0342 24.716 0.372604 18.0529C0.289745 17.9701 0.239746 17.8629 0.239746 17.7329V14.5643C0.239746 14.3129 0.445465 14.1114 0.696899 14.1114C0.725471 14.1114 0.74833 14.1243 0.784045 14.13C0.855475 14.1643 0.934046 14.2043 1.01548 14.2457C3.3741 15.4272 10.6786 18.2272 17.313 11.9599C17.3801 11.8999 17.4473 11.8414 17.5101 11.7771C17.5701 11.7428 17.633 11.7314 17.6987 11.7314C17.7473 11.7314 17.7973 11.7428 17.843 11.7657C17.9387 11.7914 18.0159 11.8542 18.0673 11.9357C20.0416 13.4414 29.1261 19.5873 37.2049 12.0471L37.3291 11.9285C37.4091 11.8485 37.5277 11.8014 37.6449 11.8014C37.7734 11.8014 37.8892 11.8485 37.9734 11.9285L38.092 12.0471C46.1751 19.5873 55.251 13.4414 57.2267 11.9357C57.2796 11.8542 57.3582 11.7914 57.4582 11.7657C57.4996 11.7428 57.5482 11.7314 57.5939 11.7314C57.6696 11.7314 57.7267 11.7428 57.7882 11.7771C57.8539 11.8414 57.9196 11.8999 57.981 11.9599C64.6126 18.2272 71.9256 15.4272 74.28 14.2457C74.3643 14.2043 74.4386 14.1643 74.51 14.13C74.5443 14.1243 74.5743 14.1114 74.6071 14.1114C74.8571 14.1114 75.06 14.3129 75.06 14.5643V17.7329C75.06 17.8629 75.0057 17.9701 74.9257 18.0529C67.2555 24.716 60.0097 18.4758 58.3325 16.8258C58.2939 16.7743 58.2582 16.7358 58.2039 16.7001C58.1339 16.6543 58.0482 16.6158 57.9525 16.6158C57.8325 16.6158 57.7267 16.6629 57.6467 16.7415C57.6396 16.7501 57.631 16.7558 57.6296 16.7615C48.9737 25.0102 39.9006 18.3244 38.0135 16.7615L37.8277 16.5843C37.7734 16.5629 37.7106 16.5558 37.6449 16.5558C37.5849 16.5558 37.5277 16.5629 37.4734 16.5843L37.2891 16.7615C35.4005 18.3244 26.3232 25.0102 17.6701 16.7615C17.663 16.7558 17.6544 16.7501 17.6501 16.7415C17.5701 16.6629 17.4573 16.6158 17.3401 16.6158C17.2473 16.6158 17.1644 16.6543 17.0901 16.7001C17.0387 16.7358 17.0044 16.7743 16.9687 16.8258ZM0.782611 2.63259C0.854042 2.67259 0.932618 2.71116 1.01548 2.75116C3.3741 3.93262 10.68 6.73982 17.313 0.462537C17.3787 0.405393 17.4487 0.346817 17.5073 0.279673C17.5687 0.253958 17.633 0.236816 17.6973 0.236816C17.7487 0.236816 17.7959 0.251102 17.8416 0.258245C17.9387 0.298246 18.0159 0.361103 18.0673 0.438248C20.0416 1.94543 29.1261 8.08843 37.2034 0.549683L37.3291 0.433964C37.4077 0.359677 37.5263 0.298245 37.6463 0.298245C37.7749 0.298245 37.8892 0.359677 37.9734 0.433964L38.092 0.549683C46.1736 8.08843 55.2481 1.94543 57.2267 0.438248C57.2796 0.361103 57.3582 0.298246 57.4567 0.258245C57.4982 0.251102 57.5482 0.236816 57.5939 0.236816C57.6682 0.236816 57.7267 0.253958 57.7882 0.279673C57.8525 0.346817 57.9182 0.405393 57.9796 0.462537C64.6141 6.73982 71.9228 3.93262 74.2785 2.75116C74.3643 2.71116 74.4386 2.67259 74.5086 2.63259C74.5443 2.62544 74.5743 2.61401 74.6071 2.61401C74.8586 2.61401 75.0571 2.8183 75.0571 3.07402V6.23267C75.0571 6.3641 75.0043 6.48125 74.9243 6.55982C67.257 13.2171 60.0097 6.9784 58.3325 5.33122C58.2925 5.28122 58.2568 5.23265 58.2039 5.20264C58.1339 5.15407 58.0468 5.11978 57.9539 5.11978C57.8339 5.11978 57.7267 5.1655 57.6453 5.24122C57.641 5.24979 57.631 5.25693 57.6282 5.26122C48.9751 13.5214 39.8992 6.83125 38.012 5.26122L37.8263 5.09121C37.7749 5.06693 37.7106 5.05693 37.6463 5.05693C37.5834 5.05693 37.5263 5.06693 37.4734 5.09121L37.2877 5.26122C35.3991 6.83125 26.3246 13.5214 17.6701 5.26122C17.663 5.25693 17.6544 5.24979 17.6473 5.24122C17.5687 5.1655 17.4573 5.11978 17.3387 5.11978C17.2458 5.11978 17.163 5.15407 17.0887 5.20264C17.0387 5.23265 17.003 5.28122 16.9687 5.33122C15.2887 6.9784 8.0342 13.2171 0.372604 6.55982C0.289745 6.48125 0.239746 6.3641 0.239746 6.23267V3.07402C0.239746 2.8183 0.444037 2.61401 0.695471 2.61401C0.724043 2.61401 0.748325 2.62544 0.782611 2.63259Z" fill="#F1F3F4"/>
</g>
</svg>
