<svg width="70" height="68" viewBox="0 0 70 68" fill="none" xmlns="http://www.w3.org/2000/svg">
<g id="Group">
<path id="Vector" d="M69.8693 30.4745C69.8693 20.6943 62.0891 12.7041 52.3974 12.3498C49.9045 5.30966 43.1801 0.250977 35.2956 0.250977C27.4126 0.250977 20.6896 5.30966 18.1938 12.3498C8.50217 12.7041 0.724854 20.6957 0.724854 30.4745C0.724854 36.2775 3.46777 41.4505 7.72358 44.7734C7.26215 46.3735 7.00785 48.0606 7.00785 49.8078C7.00785 59.8052 15.1437 67.9425 25.1468 67.9425C28.9426 67.9425 32.467 66.7682 35.3842 64.7668C38.2657 66.6954 41.7272 67.8225 45.4473 67.8225C55.4475 67.8225 63.5848 59.6852 63.5848 49.6864C63.5848 47.9749 63.342 46.3206 62.8977 44.752C67.1363 41.4276 69.8693 36.2647 69.8693 30.4745ZM49.7831 18.39C49.7831 25.6501 44.4087 31.6617 37.4328 32.7003C37.32 31.9731 37.2442 31.2317 37.2442 30.4745C37.2442 23.2129 42.6172 17.1999 49.5931 16.1628C49.7059 16.8899 49.7831 17.6299 49.7831 18.39ZM35.3628 60.0624C32.6513 57.4294 30.9598 53.7536 30.9598 49.6864C30.9598 45.682 32.5956 42.0519 35.2299 39.4276C37.94 42.0605 39.6329 45.7377 39.6329 49.8078C39.6329 53.8108 37.9985 57.4394 35.3628 60.0624ZM20.9996 16.1628C27.9755 17.1999 33.3499 23.2129 33.3499 30.4745C33.3499 31.2317 33.2727 31.9731 33.1599 32.7003C26.184 31.6617 20.8096 25.6501 20.8096 18.39C20.8096 17.6299 20.8867 16.8899 20.9996 16.1628ZM31.7998 36.9533C29.4169 41.6934 24.5197 44.9606 18.8624 44.9606C16.4638 44.9606 14.2023 44.3634 12.208 43.3263C14.5909 38.5876 19.4896 35.3204 25.1468 35.3204C27.5469 35.3204 29.8055 35.9161 31.7998 36.9533ZM38.7457 36.8561C40.7529 35.8032 43.0272 35.2004 45.4473 35.2004C51.1417 35.2004 56.0661 38.5133 58.4333 43.3034C56.4247 44.3563 54.146 44.9606 51.7317 44.9606C46.0344 44.9606 41.11 41.6476 38.7457 36.8561ZM35.2956 3.90392C41.2315 3.90392 46.3373 7.494 48.5745 12.6141C42.6815 13.6541 37.7628 17.5428 35.2956 22.8072C32.8313 17.5428 27.9112 13.6527 22.0182 12.6141C24.254 7.494 29.3612 3.90392 35.2956 3.90392ZM4.37636 30.4745C4.37636 23.0101 10.0493 16.8499 17.3095 16.0713C17.2138 16.8314 17.1581 17.6057 17.1581 18.39C17.1581 23.6915 19.4467 28.4702 23.0839 31.7888C17.0666 32.4746 11.9351 36.1104 9.17647 41.2148C6.23783 38.5619 4.37636 34.7361 4.37636 30.4745ZM10.6608 49.8078C10.6608 48.7778 10.7694 47.7749 10.9765 46.8063C13.3637 47.9621 16.0381 48.6121 18.8624 48.6121C22.0396 48.6121 25.0225 47.7892 27.6212 46.3506C27.4183 47.4321 27.3069 48.5478 27.3069 49.6864C27.3069 54.5865 29.2655 59.0352 32.4341 62.3024C30.2912 63.5581 27.804 64.291 25.1468 64.291C17.1581 64.291 10.6608 57.7923 10.6608 49.8078ZM59.9333 49.6864C59.9333 57.6723 53.4346 64.171 45.4473 64.171C42.8472 64.171 40.4143 63.4739 38.3043 62.271C41.3858 59.0181 43.2844 54.6294 43.2844 49.8078C43.2844 48.6207 43.1658 47.4606 42.9472 46.3363C45.5516 47.7849 48.5445 48.6121 51.7317 48.6121C54.5646 48.6121 57.2504 47.9578 59.6405 46.792C59.8333 47.7292 59.9333 48.6964 59.9333 49.6864ZM47.6202 31.6831C51.1931 28.3673 53.4346 23.6372 53.4346 18.39C53.4346 17.6057 53.3789 16.8314 53.2832 16.0713C60.5419 16.8499 66.2178 23.0101 66.2178 30.4745C66.2178 34.7146 64.3748 38.5247 61.4576 41.1762C58.7276 36.0618 53.6203 32.4031 47.6202 31.6831Z" fill="#F1F3F4"/>
</g>
</svg>
