<svg width="69" height="68" viewBox="0 0 69 68" fill="none" xmlns="http://www.w3.org/2000/svg">
<g id="Group">
<path id="Vector" fill-rule="evenodd" clip-rule="evenodd" d="M23.2562 39.0704C23.4262 39.0704 23.5633 39.209 23.5633 39.379V49.5192C23.5633 49.6921 23.4262 49.8278 23.2562 49.8278H19.1518C18.9818 49.8278 18.8446 49.6921 18.8446 49.5192V39.379C18.8446 39.209 18.9818 39.0704 19.1518 39.0704H23.2562ZM68.3229 54.1822C68.49 54.1822 68.6329 54.3279 68.6329 54.4994V58.6337C68.6329 58.8009 68.49 58.938 68.3229 58.938H0.695663C0.527088 58.938 0.387085 58.8009 0.387085 58.6337V54.4994C0.387085 54.3279 0.527088 54.1822 0.695663 54.1822H68.3229ZM68.3229 62.3967C68.49 62.3967 68.6329 62.5324 68.6329 62.701V66.8468C68.6329 67.0125 68.49 67.1525 68.3229 67.1525H0.695663C0.527088 67.1525 0.387085 67.0125 0.387085 66.8468V62.701C0.387085 62.5324 0.527088 62.3967 0.695663 62.3967H68.3229ZM55.454 27.8459C56.3226 27.1573 58.567 25.6387 61.2927 25.6387C63.2899 25.6387 65.1371 26.4344 66.7886 28.0088C66.9043 28.1159 66.97 28.2716 66.97 28.4259V28.7531C66.97 29.0145 66.7943 29.2388 66.5443 29.3102C66.38 29.3502 66.2086 29.3159 66.1486 29.2974C65.9914 29.2416 65.8714 29.1645 65.7743 29.0688C65.4185 28.8302 64.4542 28.5059 63.0599 28.5059C61.627 28.5059 58.817 28.8888 56.0812 31.4303L56.0255 31.4874C55.8869 31.6374 55.6669 31.726 55.454 31.726C55.2297 31.726 55.0183 31.6388 54.8654 31.4817L54.8026 31.426C52.0825 28.8888 49.2682 28.5059 47.8353 28.5059C46.4495 28.5059 45.4809 28.8302 45.1267 29.0688C45.0309 29.1645 44.9138 29.2388 44.7881 29.2831C44.7495 29.2974 44.7009 29.3102 44.6624 29.3159C44.4866 29.3574 44.3324 29.3159 44.1852 29.2045C44.0523 29.0931 43.9923 28.9231 43.9923 28.7416V28.3731C43.9923 28.2116 44.0581 28.0602 44.1738 27.9502C45.8095 26.4159 47.6381 25.6416 49.6039 25.6416C52.354 25.6416 54.6083 27.1845 55.454 27.8459ZM51.2568 0.892416C52.1054 0.465264 52.9568 0.250977 53.7926 0.250977C56.1683 0.250977 57.7341 1.97244 58.3527 2.80675C58.8784 2.61388 59.7684 2.34959 60.787 2.34959C62.1556 2.34959 64.0614 2.82675 65.3743 5.1068C65.4257 5.18966 65.4528 5.29109 65.4528 5.39681C65.4528 5.45538 65.4457 5.5111 65.43 5.5611L65.3728 5.7611C65.3285 5.9111 65.2243 6.03825 65.0857 6.10682C64.9985 6.15254 64.91 6.17397 64.8171 6.17397C64.7971 6.17397 64.7757 6.17397 64.7571 6.17111C64.7228 6.16825 64.6871 6.16397 64.6571 6.15683C64.5957 6.1354 64.4942 6.08397 64.4371 6.05111C64.3457 5.98254 64.2642 5.89682 64.2114 5.79825C63.9499 5.50824 62.8342 4.81108 61.127 4.81108C60.1184 4.81108 59.0955 5.06394 58.1098 5.55824L58.0655 5.57967C57.9755 5.62967 57.8498 5.66396 57.7241 5.66396C57.6612 5.66396 57.5612 5.64681 57.5084 5.62967C57.3269 5.58253 57.1741 5.46109 57.0755 5.28395L57.0526 5.23966C55.2512 2.17673 52.524 2.08388 52.2211 2.08388C51.9968 2.08388 51.8725 2.11816 51.8125 2.12959C51.7082 2.1853 51.6025 2.20959 51.4854 2.21388C51.4625 2.22102 51.4311 2.21388 51.3997 2.20959C51.2354 2.20245 51.0868 2.11959 50.9825 1.98244C50.8754 1.83958 50.8425 1.65101 50.8925 1.47386L50.9611 1.24814C51.0096 1.09099 51.1125 0.959561 51.2568 0.892416ZM36.9679 11.2969C36.9608 11.1384 37.0165 10.9812 37.125 10.8641C38.5108 9.39404 40.1237 8.64688 41.9223 8.64688C43.9709 8.64688 45.7152 9.65548 46.4353 10.1441C47.221 9.45547 49.1182 8.05115 51.4968 8.05115C53.0254 8.05115 54.4769 8.62117 55.8226 9.75262C55.9426 9.85691 56.0155 9.99834 56.0255 10.1555L56.0412 10.4198C56.0583 10.6812 55.8998 10.9169 55.6569 11.0012C55.614 11.0155 55.5597 11.0312 55.5155 11.0355C55.4083 11.0469 55.3083 11.0298 55.2683 11.0198C55.124 10.9812 55.0097 10.9169 54.9169 10.8369C54.6712 10.6984 54.0411 10.5141 53.154 10.5141C51.9068 10.5141 49.4796 10.8698 47.2253 13.2541L47.1796 13.3056C47.0581 13.447 46.861 13.5441 46.6481 13.5613H46.5981C46.4081 13.5613 46.2224 13.4899 46.0767 13.3641L46.0295 13.3156C43.9938 11.6441 41.9966 11.2927 40.6823 11.2927C39.3165 11.2927 38.3908 11.6712 38.1036 11.8784C38.0265 11.9727 37.9279 12.047 37.8108 12.0955C37.7822 12.1055 37.7451 12.1184 37.7122 12.1255C37.5622 12.1698 37.3908 12.1412 37.2579 12.057C37.0965 11.9555 36.9965 11.7912 36.9879 11.6012L36.9679 11.2969ZM2.74571 16.7256C2.74571 12.6755 6.02864 9.39404 10.0773 9.39404C10.2359 9.39404 10.3902 9.40833 10.5473 9.4169C10.933 4.2925 15.2031 0.250977 20.429 0.250977C25.9077 0.250977 30.3492 4.69108 30.3492 10.1698C30.3492 11.7227 29.982 13.1841 29.3463 14.4927C34.3107 15.5928 38.0265 20.0143 38.0265 25.3073C38.0265 31.4303 33.0635 36.3932 26.942 36.3932C26.4948 36.3932 12.1473 36.3075 12.1473 36.3075C7.81154 36.3061 4.29717 32.7946 4.29717 28.4588C4.29717 26.3759 5.11433 24.4901 6.43722 23.0844C4.23431 21.8186 2.74571 19.4486 2.74571 16.7256Z" fill="#F1F3F4"/>
</g>
</svg>
