<svg width="76" height="65" viewBox="0 0 76 65" fill="none" xmlns="http://www.w3.org/2000/svg">
<g id="Group">
<path id="Vector" fill-rule="evenodd" clip-rule="evenodd" d="M26.1838 61.7787C12.9849 57.7115 3.03186 47.1727 0.793236 34.2781L0.746094 33.8595C0.746094 33.3467 1.16039 32.9309 1.67754 32.9309H74.892C75.4078 32.9309 75.8206 33.3467 75.8206 33.8595C75.8206 33.9038 75.8163 33.9438 75.8078 33.9881C75.8049 34.0124 75.8006 34.0381 75.7963 34.0652C73.6649 46.8384 63.9775 57.3186 51.0458 61.5587V63.7745C51.0458 63.7774 51.0486 63.7802 51.0486 63.7802L51.0458 63.7874C51.0415 64.2902 50.6415 64.6974 50.14 64.7074C50.1329 64.7074 50.1258 64.7102 50.12 64.7102C50.1129 64.7102 50.1058 64.7074 50.1 64.7074H27.1281C27.121 64.7074 27.1124 64.7102 27.1053 64.7102C27.0981 64.7102 27.0938 64.7074 27.0867 64.7074C26.5995 64.6974 26.2038 64.3117 26.1838 63.8274C26.1824 63.8131 26.1767 63.7974 26.1767 63.7802C26.1767 63.7659 26.1824 63.7502 26.1838 63.7374V61.7787ZM51.0244 1.68307C51.6901 0.753051 53.1101 0.454472 54.2059 1.01449C55.2987 1.57736 55.653 2.7831 54.9902 3.71883C54.9059 3.84455 49.2843 12.0476 54.8344 18.1149C58.7588 22.4021 59.1617 26.5722 58.1831 29.898H53.3516C54.3373 27.6451 54.6373 24.3107 51.1829 20.5306C43.6485 12.2962 50.7229 2.11308 51.0244 1.68307ZM38.7869 29.898C39.7712 27.648 40.0713 24.3122 36.6169 20.5306C29.0767 12.2962 36.1555 2.11165 36.4597 1.68307C37.1226 0.753051 38.5455 0.455901 39.637 1.01449C40.7327 1.57878 41.0827 2.7831 40.4227 3.71455C40.3341 3.84884 34.7169 12.0462 40.2698 18.1149C44.1928 22.4021 44.5985 26.5722 43.6213 29.898H38.7869ZM21.8909 1.68307C22.5537 0.751622 23.9752 0.451615 25.0681 1.01449C26.1638 1.57736 26.5138 2.7831 25.8567 3.71455C25.7681 3.84455 20.1465 12.0476 25.6995 18.1149C29.6253 22.4035 30.0296 26.5736 29.0524 29.898H24.2195C25.2038 27.648 25.5024 24.3122 22.0466 20.5306C14.5107 12.2962 21.5851 2.11308 21.8909 1.68307Z" fill="#F1F3F4"/>
</g>
</svg>
