<svg width="94" height="67" viewBox="0 0 94 67" fill="none" xmlns="http://www.w3.org/2000/svg">
<g id="Group">
<path id="Vector" fill-rule="evenodd" clip-rule="evenodd" d="M93.8458 35.4616C93.8458 37.4216 93.0729 39.1974 91.8243 40.4817L91.8315 40.4888L82.0827 50.2576L72.321 40.4774C71.0724 39.1931 70.301 37.4188 70.301 35.4602C70.301 31.5401 72.9696 28.3629 76.7783 28.3629C78.6826 28.3629 80.827 30.45 82.0741 31.7344C83.3227 30.4515 85.6199 28.3657 87.5228 28.3657C91.3315 28.3657 93.8458 31.5429 93.8458 35.4616ZM52.2849 66.2237C52.252 66.2237 52.2192 66.2223 52.1849 66.2209C51.4434 66.1752 50.8306 65.6251 50.7048 64.8923L45.7462 36.013L38.2346 49.9391C37.906 50.5491 37.2188 50.8777 36.5431 50.7562C35.8617 50.6348 35.3359 50.0905 35.2374 49.4062L32.0487 27.1185L26.2143 40.2217C25.9571 40.8003 25.3828 41.1731 24.75 41.1731H2.07519C1.18945 41.1731 0.47229 40.4546 0.47229 39.5703C0.47229 38.6845 1.18945 37.9674 2.07519 37.9674H23.7085L31.383 20.7313C31.673 20.0784 32.3601 19.6969 33.0687 19.7955C33.7759 19.8941 34.333 20.4484 34.4345 21.1555L37.7217 44.1375L45.129 30.4029C45.4533 29.7986 46.1247 29.47 46.8005 29.5815C47.4748 29.6915 48.0048 30.2186 48.1205 30.8929L52.712 57.6392L69.4481 2.04654C69.6381 1.41367 70.1981 0.96223 70.8567 0.9108C71.5167 0.862228 72.1396 1.21652 72.4268 1.81225L81.2327 20.0684C81.617 20.8655 81.2827 21.8241 80.4855 22.2084C79.6883 22.5927 78.7298 22.2584 78.3455 21.4613L71.3296 6.91665L53.8192 65.0823C53.6149 65.7637 52.9878 66.2237 52.2849 66.2237Z" fill="#F1F3F4"/>
</g>
</svg>
