<svg width="79" height="65" viewBox="0 0 79 65" fill="none" xmlns="http://www.w3.org/2000/svg">
<g id="Group">
<path id="Vector" fill-rule="evenodd" clip-rule="evenodd" d="M30.894 19.4576V59.2272L5.91631 51.69V5.03596L30.894 19.4576ZM33.6402 19.5532L58.7793 5.03732V51.6842L33.6402 59.243V19.5532ZM78.3842 50.8633L75.4324 61.1921L72.4768 50.8633H72.4732V9.35367H78.3842V50.8633ZM64.1449 7.03967V54.8735L61.6833 55.598L33.8391 64.4381H30.7637L0.584473 56.0835V7.03967L3.26579 4.92384V54.2049L30.894 61.9238H33.7156L61.4673 52.9548V4.92384L64.1449 7.03967ZM78.3842 3.85512V7.03933H72.4768V3.85512C72.4768 2.22069 73.7969 0.899292 75.4324 0.899292C77.0644 0.899292 78.3842 2.22069 78.3842 3.85512Z" fill="#F1F3F4"/>
</g>
</svg>
