<svg width="56" height="76" viewBox="0 0 56 76" fill="none" xmlns="http://www.w3.org/2000/svg">
<g id="Group">
<path id="Vector" fill-rule="evenodd" clip-rule="evenodd" d="M55.3907 0.934753C55.5135 0.934753 55.615 1.03333 55.615 1.15619V18.4652C55.615 18.5866 55.5135 18.6852 55.3907 18.6852H49.6406C49.5191 18.6852 49.4177 18.5866 49.4177 18.4652V12.0279L41.8732 19.5723C44.479 23.2638 46.0148 27.7597 46.0148 32.6112C46.0148 43.8586 37.7803 53.2131 27.0243 54.9774V61.7133H33.8502C33.9716 61.7133 34.0702 61.8104 34.0702 61.9319V68.0963C34.0702 68.2192 33.9716 68.3163 33.8502 68.3163H27.0243V74.8393C27.0243 74.9607 26.9229 75.0579 26.8015 75.0579H20.6399C20.517 75.0579 20.4199 74.9607 20.4199 74.8393V68.3163H13.5926C13.4655 68.3163 13.3697 68.2192 13.3697 68.0963V61.9319C13.3697 61.8104 13.4655 61.7133 13.5926 61.7133H20.4199V55.086C9.29822 53.6445 0.675171 44.12 0.675171 32.6112C0.675171 20.1109 10.8468 9.9421 23.3457 9.9421C28.6172 9.9421 33.4673 11.7536 37.3217 14.7822L44.9747 7.12918H38.0831C37.9646 7.12918 37.8631 7.03061 37.8631 6.90775V1.15619C37.8631 1.03333 37.9646 0.934753 38.0831 0.934753H55.3907ZM23.3457 49.2973C32.5473 49.2973 40.0318 41.8114 40.0318 32.6112C40.0318 23.411 32.5473 15.9251 23.3457 15.9251C14.144 15.9251 6.66102 23.411 6.66102 32.6112C6.66102 41.8114 14.144 49.2973 23.3457 49.2973ZM33.5388 34.5112C33.6645 34.5112 33.7631 34.6041 33.7631 34.7155V39.6156C33.7631 39.7256 33.6645 39.8128 33.5388 39.8128H13.2997C13.1783 39.8128 13.0797 39.7256 13.0797 39.6156V34.7155C13.0797 34.6041 13.1783 34.5112 13.2997 34.5112H33.5388ZM33.5388 25.7625C33.6645 25.7625 33.7631 25.8525 33.7631 25.9596V30.8597C33.7631 30.974 33.6645 31.0597 33.5388 31.0597H13.2997C13.1783 31.0597 13.0797 30.974 13.0797 30.8597V25.9596C13.0797 25.8525 13.1783 25.7625 13.2997 25.7625H33.5388Z" fill="#F1F3F4"/>
</g>
</svg>
