<svg width="53" height="72" viewBox="0 0 53 72" fill="none" xmlns="http://www.w3.org/2000/svg">
<g id="Group">
<path id="Vector" d="M52.5549 0.296439C52.4363 0.167865 52.2777 0.0964355 52.0977 0.0964355H1.57518C1.39946 0.0964355 1.23946 0.167865 1.12089 0.296439C1.00946 0.437871 0.9666 0.612159 0.993744 0.77502L9.4825 52.1119C9.52965 52.3962 9.77822 52.6076 10.0654 52.6076H20.4827L21.1956 60.9678L16.8112 60.9735L27.0115 71.1738L37.2374 60.9507L32.8545 60.955L33.5659 52.6076H44.1676C44.459 52.6076 44.7033 52.3962 44.7476 52.1033L52.6892 0.77502C52.7163 0.597873 52.6635 0.429299 52.5549 0.296439ZM33.0287 41.396C33.0287 41.396 30.733 43.7546 27 43.4989C23.2571 43.7546 20.9642 41.396 20.9642 41.396C17.1798 37.6144 18.5299 32.91 19.847 30.4786C20.6613 28.9557 26.4757 20.2226 26.9758 19.4797V19.4212C26.9758 19.4212 26.9858 19.4326 27 19.4483L27.02 19.4212V19.4797C27.5058 20.2226 33.3316 28.9557 34.1445 30.4786C35.4645 32.91 36.8103 37.6144 33.0287 41.396ZM49.0548 11.0981C47.6862 10.4952 45.9505 10.7124 44.2833 11.3867C38.0146 13.9282 33.7488 14.8425 27.1543 12.7767C23.0028 11.4781 19.117 8.75521 14.5255 10.4138C11.4783 11.5096 8.6382 12.5553 5.19241 12.5281L3.20236 2.32505H50.4863L49.0548 11.0981Z" fill="#F1F3F4"/>
</g>
</svg>
