<svg width="72" height="72" viewBox="0 0 72 72" fill="none" xmlns="http://www.w3.org/2000/svg">
<g id="Group">
<path id="Vector" fill-rule="evenodd" clip-rule="evenodd" d="M35.742 15.3825C47.0136 15.3825 56.151 24.5199 56.151 35.793C56.151 47.0704 47.0136 56.2063 35.742 56.2063C24.4703 56.2063 15.3329 47.0704 15.3329 35.793C15.3329 24.5199 24.4703 15.3825 35.742 15.3825ZM34.2305 23.4455V30.4528C34.2305 31.13 34.9134 31.87 35.7505 31.87C36.5863 31.87 37.262 31.13 37.262 30.4528V23.4455C37.262 22.767 36.5863 22.0184 35.7505 22.0184C34.9134 22.0184 34.2305 22.767 34.2305 23.4455ZM35.7448 46.2518C41.6092 46.2518 46.3622 41.5002 46.3622 35.6358C46.3622 30.8643 43.215 26.8299 38.882 25.4913V29.44C41.1435 30.5871 42.695 32.9272 42.695 35.6358C42.695 39.4745 39.5849 42.586 35.7448 42.586C31.9062 42.586 28.7961 39.4745 28.7961 35.6358C28.7961 32.9343 30.3404 30.5986 32.5905 29.45V25.497C28.2675 26.8399 25.1303 30.8714 25.1303 35.6358C25.1303 41.5002 29.8833 46.2518 35.7448 46.2518ZM12.3129 35.6144C12.3129 36.543 11.4929 37.2959 10.7443 37.2959H1.80693C1.05263 37.2959 0.225464 36.543 0.225464 35.6144C0.225464 34.6887 1.05263 33.9401 1.80693 33.9401H10.7443C11.4929 33.9401 12.3129 34.6887 12.3129 35.6144ZM71.2685 35.6144C71.2685 36.543 70.4485 37.2959 69.6999 37.2959H60.7625C60.0082 37.2959 59.1811 36.543 59.1811 35.6144C59.1811 34.6887 60.0082 33.9401 60.7625 33.9401H69.6999C70.4485 33.9401 71.2685 34.6887 71.2685 35.6144ZM35.7505 71.1381C34.8234 71.1381 34.0676 70.318 34.0676 69.5695V60.6321C34.0676 59.8792 34.8234 59.0507 35.7505 59.0507C36.6749 59.0507 37.4249 59.8792 37.4249 60.6321V69.5695C37.4249 70.318 36.6749 71.1381 35.7505 71.1381ZM66.5784 53.2591C66.1169 54.0648 65.0312 54.312 64.3826 53.9391L56.6239 49.5004C55.971 49.1261 55.6267 48.0604 56.0881 47.2561C56.5467 46.4518 57.6382 46.2118 58.2925 46.5861L66.0498 51.0262C66.6984 51.3976 67.0369 52.4562 66.5784 53.2591ZM18.1059 66.4494C17.3001 65.9894 17.053 64.9008 17.4244 64.2522L21.8645 56.4949C22.2374 55.842 23.3046 55.4977 24.1089 55.9577C24.9117 56.4163 25.1517 57.5092 24.7774 58.1621L20.3373 65.9194C19.9659 66.5694 18.9087 66.908 18.1059 66.4494ZM53.4567 66.4094C52.6524 66.8708 51.5909 66.5365 51.218 65.8879L46.7636 58.1406C46.3851 57.4863 46.6265 56.3934 47.4308 55.932C48.2337 55.4706 49.2951 55.8134 49.6723 56.4663L54.1281 64.215C54.501 64.8636 54.2581 65.9479 53.4567 66.4094ZM4.95557 53.3277C4.4927 52.5234 4.82842 51.4605 5.47701 51.0876L13.2243 46.6318C13.8772 46.2561 14.9715 46.4975 15.4329 47.3018C15.8958 48.1047 15.5515 49.1661 14.8972 49.5419L7.1499 53.9977C6.49989 54.3705 5.41558 54.1291 4.95557 53.3277ZM35.7505 12.1839C34.8234 12.1839 34.0676 11.3638 34.0676 10.6167V1.6779C34.0676 0.923601 34.8234 0.0964355 35.7505 0.0964355C36.6749 0.0964355 37.4249 0.923601 37.4249 1.6779V10.6167C37.4249 11.3638 36.6749 12.1839 35.7505 12.1839ZM15.4087 23.9741C14.9486 24.7799 13.8629 25.0256 13.2129 24.6541L5.45558 20.2155C4.80128 19.8397 4.45699 18.7754 4.91843 17.9697C5.37844 17.1668 6.46846 16.9268 7.12276 17.3025L14.8801 21.7412C15.5301 22.1127 15.8687 23.1713 15.4087 23.9741ZM47.3908 15.2811C46.5851 14.8211 46.3379 13.7339 46.7094 13.0839L51.1495 5.32655C51.5238 4.67368 52.5895 4.32796 53.3952 4.7894C54.1967 5.24941 54.4367 6.33944 54.0624 6.99517L49.6223 14.7525C49.2494 15.4011 48.1937 15.7397 47.3908 15.2811ZM24.0674 15.3011C23.2617 15.7639 22.2017 15.4282 21.8274 14.7796L17.373 7.03231C16.9958 6.37801 17.2358 5.28513 18.0416 4.82369C18.8444 4.36225 19.9045 4.70369 20.2816 5.35799L24.7374 13.1067C25.1117 13.7553 24.8689 14.8396 24.0674 15.3011ZM56.0639 23.9384C55.601 23.1355 55.9367 22.0712 56.5853 21.6984L64.334 17.244C64.9883 16.8668 66.0798 17.1097 66.5427 17.9126C67.0041 18.7154 66.6598 19.7769 66.0055 20.1526L58.2582 24.6084C57.6082 24.9813 56.5253 24.7399 56.0639 23.9384Z" fill="#F1F3F4"/>
</g>
</svg>
