<svg width="69" height="72" viewBox="0 0 69 72" fill="none" xmlns="http://www.w3.org/2000/svg">
<g id="Group">
<path id="Vector" fill-rule="evenodd" clip-rule="evenodd" d="M61.5849 17.21C62.5158 16.2848 62.8655 17.1035 62.8655 17.5524V70.8171C62.8655 71.2631 62.5029 71.6286 62.0554 71.6286H47.3292C46.8803 71.6286 46.5148 71.2631 46.5148 70.8171V32.8081C46.5148 31.7017 46.7911 31.3074 47.3292 30.7722L61.5849 17.21ZM20.5156 34.8786C21.4422 33.9491 21.7961 34.7692 21.7961 35.2181V70.8171C21.7961 71.2603 21.4335 71.6257 20.9846 71.6257H6.25844C5.80953 71.6257 5.44551 71.2603 5.44551 70.8171V50.4738C5.44551 49.3674 5.72176 48.9746 6.25844 48.4379L20.5156 34.8786ZM68.0653 0.764412L68.0595 0.883833L65.6611 12.0274L65.6596 12.0634C65.6553 12.1612 65.6179 12.2547 65.5402 12.331C65.3819 12.4936 65.1186 12.4936 64.9589 12.331L62.3403 9.71524L34.2677 37.7878C34.1382 37.9188 33.931 37.9188 33.803 37.7878L30.7023 34.6901C30.688 34.6786 30.6836 34.6642 30.675 34.6512L22.3846 26.3608L4.30022 44.4409C4.17217 44.5704 3.96497 44.5704 3.83836 44.4409L0.734854 41.3388C0.608239 41.2122 0.608239 41.0021 0.734854 40.8741L19.048 22.5638C19.048 22.5638 19.048 22.5595 19.0509 22.5595L22.1501 19.4588C22.281 19.3294 22.4853 19.3294 22.6148 19.4588L34.0389 30.8844L58.7749 6.14843L56.2815 3.65642L56.1577 3.53268C55.998 3.37009 55.998 3.10823 56.1577 2.94565C56.2196 2.8881 56.293 2.84925 56.3707 2.83486L56.5692 2.81327L67.4855 0.351475L67.602 0.34428L67.6811 0.339966C67.7732 0.348599 67.8696 0.381688 67.9444 0.455068C68.0322 0.539957 68.0711 0.656501 68.0653 0.764412ZM41.1308 37.2584C42.1423 36.2454 42.4963 37.067 42.4963 37.5159V70.8157C42.4963 71.2603 42.1322 71.6257 41.6862 71.6257H26.9557C26.5082 71.6257 26.1485 71.2603 26.1485 70.8157V38.0583C26.1485 37.6109 26.396 36.6857 27.5398 37.8267L33.7886 44.1963C33.9109 44.3171 34.1022 44.3215 34.2332 44.2136L41.1308 37.2584Z" fill="#F1F3F4"/>
</g>
</svg>
