<svg width="72" height="72" viewBox="0 0 72 72" fill="none" xmlns="http://www.w3.org/2000/svg">
<g id="Group">
<path id="Vector" d="M70.7262 39.7756L54.1716 30.2211V11.1078C54.1716 10.7049 53.9559 10.332 53.6073 10.1292L36.4912 0.24751C36.1412 0.0460773 35.7126 0.0460773 35.3626 0.24751L18.2451 10.1292C17.895 10.332 17.6808 10.7049 17.6808 11.1078V30.2211L1.12753 39.7756C0.777524 39.977 0.563232 40.3499 0.563232 40.7542V60.5217C0.563232 60.9246 0.777524 61.2975 1.12753 61.5003L18.2451 71.3806C18.4208 71.4806 18.6136 71.532 18.8094 71.532C19.0051 71.532 19.1994 71.4806 19.3737 71.3806L35.9269 61.8261L52.4773 71.3806C52.653 71.4806 52.8473 71.532 53.0416 71.532C53.2373 71.532 53.4316 71.4806 53.6073 71.3806L70.7262 61.5003C71.0762 61.2989 71.2905 60.9246 71.2905 60.5217V40.7542C71.2905 40.3499 71.0762 39.977 70.7262 39.7756ZM34.7983 58.566L21.068 50.6387L34.7983 42.7099V58.566ZM50.7829 30.8739L37.0555 38.7984V22.9452L50.7829 30.8739ZM34.7983 38.7984L21.068 30.8739L34.7983 22.9452V38.7984ZM38.1855 40.7542L53.0416 32.1782L67.9033 40.7542L53.0416 49.3343L38.1855 40.7542ZM51.913 28.9182L38.1855 20.9894L51.913 13.0635V28.9182ZM33.6683 20.9894L19.938 28.9182V13.0635L33.6683 20.9894ZM17.6808 68.4462L2.82185 59.8703V42.7099L17.6808 51.2901V68.4462ZM19.938 68.4462V52.5944L33.6683 60.5217L19.938 68.4462ZM69.0319 59.8703L54.1716 68.4462V51.2901L69.0319 42.7099V59.8703Z" fill="#F1F3F4"/>
</g>
</svg>
